<svg width="375" height="223" viewBox="0 0 375 223" fill="none" xmlns="http://www.w3.org/2000/svg">
<path fill-rule="evenodd" clip-rule="evenodd" d="M494 154L473.533 145.5C453.067 137 412.133 120 371.2 120C330.267 120 289.333 137 248.4 154C207.467 171 166.533 188 125.6 200.75C84.6667 213.5 43.7334 222 2.80002 222C-38.1333 222 -79.0667 213.5 -99.5333 209.25L-120 205V1H-99.5333C-79.0667 1 -38.1333 1 2.80002 1C43.7334 1 84.6667 1 125.6 1C166.533 1 207.467 1 248.4 1C289.333 1 330.267 1 371.2 1C412.133 1 453.067 1 473.533 1H494V154Z" stroke="white"/>
</svg>
